# xmcd
#
# Track frame offsets: 
#        150
#        11155
#        29288
#        42751
#        60695
#        74214
#        90614
#        119913
#        150039
#        176906
#        191027
#
# Disc length: 2693 seconds
#
# Revision: 0
# Processed by: cddbd v1.5.2PL0 Copyright (c) Steve Scherf et al.
# Submitted via: ExactAudioCopy v1.2
#
DISCID=9a0a830b
DTITLE=Leo Maier - I Choose the Blues
DYEAR=2017
DGENRE=Blues
TTITLE0=Good Luck Socks
TTITLE1=You've Been Drinking Too Much
TTITLE2=South to North Slide
TTITLE3=Partying with the Band
TTITLE4=Blumenau Boogie
TTITLE5=Blues for Mr. Jody Williams
TTITLE6=I Choose the Blues
TTITLE7=That Crazy Girl
TTITLE8=We Miss the King
TTITLE9=I'm Travelling
TTITLE10=Good Luck Socks (Alternative Version)
EXTD=
EXTT0=
EXTT1=
EXTT2=
EXTT3=
EXTT4=
EXTT5=
EXTT6=
EXTT7=
EXTT8=
EXTT9=
EXTT10=
PLAYORDER=
